# OBJ generated by ONSHAPE BY PTC INC, 1.189 Units = meters
mtllib Parcours.mtl
g Parcours
v 0.12 0.005 0 
v 0.12 0 0 
v 0.12 0 1 
v 0.12 0.005 1 
v 0.11 0 1 
v 0.11 0.005 1 
v 0.11 0 1.01 
v 0.11 0.005 1.01 
v 0.155 0 1.01 
v 0.155 0.005 1.01 
v 0.155 0 1 
v 0.155 0.005 1 
v 0.145 0 1 
v 0.145 0.005 1 
v 0.145 0 5.69641e-17 
v 0.145 0.005 5.69641e-17 
v -0.145 0 6.93889e-17 
v -0.145 0.005 6.93889e-17 
v -0.14453 0.005 -0.0116677 
v -0.14453 0 -0.0116677 
v -0.143122 0.005 -0.0232596 
v -0.143122 0 -0.0232596 
v -0.140787 0.005 -0.0347008 
v -0.140787 0 -0.0347008 
v -0.137538 0.005 -0.0459169 
v -0.137538 0 -0.0459169 
v -0.133397 0.005 -0.0568352 
v -0.133397 0 -0.0568352 
v -0.128391 0.005 -0.0673849 
v -0.128391 0 -0.0673849 
v -0.122553 0.005 -0.0774975 
v -0.122553 0 -0.0774975 
v -0.115919 0.005 -0.0871076 
v -0.115919 0 -0.0871076 
v -0.108534 0.005 -0.0961528 
v -0.108534 0 -0.0961528 
v -0.100445 0.005 -0.104574 
v -0.100445 0 -0.104574 
v -0.0917046 0.005 -0.112318 
v -0.0917046 0 -0.112318 
v -0.0823694 0.005 -0.119333 
v -0.0823694 0 -0.119333 
v -0.0725 0.005 -0.125574 
v -0.0725 0 -0.125574 
v -0.0621604 0.005 -0.131 
v -0.0621604 0 -0.131 
v -0.0514177 0.005 -0.135577 
v -0.0514177 0 -0.135577 
v -0.0403415 0.005 -0.139275 
v -0.0403415 0 -0.139275 
v -0.0290037 0.005 -0.14207 
v -0.0290037 0 -0.14207 
v -0.0174778 0.005 -0.143943 
v -0.0174778 0 -0.143943 
v -0.00583856 0.005 -0.144882 
v -0.00583856 0 -0.144882 
v 0.00583856 0.005 -0.144882 
v 0.00583856 0 -0.144882 
v 0.0174778 0.005 -0.143943 
v 0.0174778 0 -0.143943 
v 0.0290037 0.005 -0.14207 
v 0.0290037 0 -0.14207 
v 0.0403415 0.005 -0.139275 
v 0.0403415 0 -0.139275 
v 0.0514177 0.005 -0.135577 
v 0.0514177 0 -0.135577 
v 0.0621604 0.005 -0.131 
v 0.0621604 0 -0.131 
v 0.0725 0.005 -0.125574 
v 0.0725 0 -0.125574 
v 0.0823694 0.005 -0.119333 
v 0.0823694 0 -0.119333 
v 0.0917046 0.005 -0.112318 
v 0.0917046 0 -0.112318 
v 0.100445 0.005 -0.104574 
v 0.100445 0 -0.104574 
v 0.108534 0.005 -0.0961528 
v 0.108534 0 -0.0961528 
v 0.115919 0.005 -0.0871076 
v 0.115919 0 -0.0871076 
v 0.122553 0.005 -0.0774975 
v 0.122553 0 -0.0774975 
v 0.128391 0.005 -0.0673849 
v 0.128391 0 -0.0673849 
v 0.133397 0.005 -0.0568352 
v 0.133397 0 -0.0568352 
v 0.137538 0.005 -0.0459169 
v 0.137538 0 -0.0459169 
v 0.140787 0.005 -0.0347008 
v 0.140787 0 -0.0347008 
v 0.143122 0.005 -0.0232596 
v 0.143122 0 -0.0232596 
v 0.14453 0.005 -0.0116677 
v 0.14453 0 -0.0116677 
v -0.145 0 0.5 
v -0.145 0.005 0.5 
v 0.103923 0.005 -0.06 
v 0.108757 0.005 -0.0507142 
v 0.119543 0.005 -0.0104587 
v 0.118177 0.005 -0.0208378 
v 0.115911 0.005 -0.0310583 
v 0.112763 0.005 -0.0410424 
v 0.0982982 0.005 -0.0688292 
v 0.0919253 0.005 -0.0771345 
v 0.0848528 0.005 -0.0848528 
v 0.0771345 0.005 -0.0919253 
v -3.39932e-17 0.005 -0.12 
v 0.0104587 0.005 -0.119543 
v 0.0688292 0.005 -0.0982982 
v 0.06 0.005 -0.103923 
v 0.0410424 0.005 -0.112763 
v 0.0507142 0.005 -0.108757 
v 0.0310583 0.005 -0.115911 
v 0.0208378 0.005 -0.118177 
v -0.0104587 0.005 -0.119543 
v -0.108757 0.005 -0.0507142 
v -0.112763 0.005 -0.0410424 
v -0.115911 0.005 -0.0310583 
v -0.118177 0.005 -0.0208378 
v -0.119543 0.005 -0.0104587 
v -0.12 0.005 1.39035e-17 
v -0.12 0.005 0.5 
v -0.0208378 0.005 -0.118177 
v -0.0310583 0.005 -0.115911 
v -0.0982982 0.005 -0.0688292 
v -0.0919253 0.005 -0.0771345 
v -0.103923 0.005 -0.06 
v -0.06 0.005 -0.103923 
v -0.0688292 0.005 -0.0982982 
v -0.0771345 0.005 -0.0919253 
v -0.0848528 0.005 -0.0848528 
v -0.0410424 0.005 -0.112763 
v -0.0507142 0.005 -0.108757 
v 0.108757 0 -0.0507142 
v 0.103923 0 -0.06 
v 0.0982982 0 -0.0688292 
v 0.112763 0 -0.0410424 
v 0.115911 0 -0.0310583 
v 0.0104587 0 -0.119543 
v 0.118177 0 -0.0208378 
v 0.119543 0 -0.0104587 
v -0.12 0 1.39035e-17 
v -0.119543 0 -0.0104587 
v -0.118177 0 -0.0208378 
v -0.115911 0 -0.0310583 
v -0.112763 0 -0.0410424 
v -0.108757 0 -0.0507142 
v -0.103923 0 -0.06 
v -0.0208378 0 -0.118177 
v -0.0310583 0 -0.115911 
v -0.0104587 0 -0.119543 
v -3.39932e-17 0 -0.12 
v 0.0410424 0 -0.112763 
v 0.0507142 0 -0.108757 
v 0.0919253 0 -0.0771345 
v 0.0848528 0 -0.0848528 
v -0.0982982 0 -0.0688292 
v -0.0919253 0 -0.0771345 
v 0.0208378 0 -0.118177 
v 0.0310583 0 -0.115911 
v 0.06 0 -0.103923 
v 0.0688292 0 -0.0982982 
v 0.0771345 0 -0.0919253 
v -0.0848528 0 -0.0848528 
v -0.0771345 0 -0.0919253 
v -0.0688292 0 -0.0982982 
v -0.06 0 -0.103923 
v -0.0507142 0 -0.108757 
v -0.0410424 0 -0.112763 
v -0.12 0 0.5 
vn -1 0 1.249e-16 
vn 0 0 -1 
vn 0 0 1 
vn 1 0 0 
vn 0 0 -1 
vn -1 0 8.88178e-16 
vn -0.996757 0 -0.0804666 
vn -0.98705 0 -0.160411 
vn -0.970942 0 -0.239316 
vn -0.948536 0 -0.316668 
vn -0.919979 0 -0.391967 
vn -0.885456 0 -0.464723 
vn -0.84519 0 -0.534466 
vn -0.799443 0 -0.600742 
vn -0.748511 0 -0.663123 
vn -0.692724 0 -0.721202 
vn -0.632445 0 -0.774605 
vn -0.568065 0 -0.822984 
vn -0.5 0 -0.866025 
vn -0.428693 0 -0.90345 
vn -0.354605 0 -0.935016 
vn -0.278217 0 -0.960518 
vn -0.200026 0 -0.979791 
vn -0.120537 0 -0.992709 
vn -0.0402659 0 -0.999189 
vn 0.0402659 0 -0.999189 
vn 0.120537 0 -0.992709 
vn 0.200026 0 -0.979791 
vn 0.278217 0 -0.960518 
vn 0.354605 0 -0.935016 
vn 0.428693 0 -0.90345 
vn 0.5 0 -0.866025 
vn 0.568065 0 -0.822984 
vn 0.632445 0 -0.774605 
vn 0.692724 0 -0.721202 
vn 0.748511 0 -0.663123 
vn 0.799443 0 -0.600742 
vn 0.84519 0 -0.534466 
vn 0.885456 0 -0.464723 
vn 0.919979 0 -0.391967 
vn 0.948536 0 -0.316668 
vn 0.970942 0 -0.239316 
vn 0.98705 0 -0.160411 
vn 0.996757 0 -0.0804666 
vn 1 0 3.21625e-16 
vn -1 0 4.44089e-16 
vn 0 1 0 
vn 0 -1 0 
vn 0 0 1 
vn 1 0 -1.11022e-16 
vn -0.996195 0 0.0871557 
vn -1 0 1.22465e-16 
vn -0.984808 0 0.173648 
vn -0.996195 0 0.0871557 
vn -0.965926 0 0.258819 
vn -0.984808 0 0.173648 
vn -0.939693 0 0.34202 
vn -0.965926 0 0.258819 
vn -0.906308 0 0.422618 
vn -0.939693 0 0.34202 
vn -0.866025 0 0.5 
vn -0.906308 0 0.422618 
vn -0.819152 0 0.573576 
vn -0.866025 0 0.5 
vn -0.766044 0 0.642788 
vn -0.819152 0 0.573576 
vn -0.707107 0 0.707107 
vn -0.766044 0 0.642788 
vn -0.642788 0 0.766044 
vn -0.707107 0 0.707107 
vn -0.573576 0 0.819152 
vn -0.642788 0 0.766044 
vn -0.5 0 0.866025 
vn -0.573576 0 0.819152 
vn -0.422618 0 0.906308 
vn -0.5 0 0.866025 
vn -0.34202 0 0.939693 
vn -0.422618 0 0.906308 
vn -0.258819 0 0.965926 
vn -0.34202 0 0.939693 
vn -0.173648 0 0.984808 
vn -0.258819 0 0.965926 
vn -0.0871557 0 0.996195 
vn -0.173648 0 0.984808 
vn 2.83277e-16 0 1 
vn -0.0871557 0 0.996195 
vn 0.0871557 0 0.996195 
vn 2.83277e-16 0 1 
vn 0.173648 0 0.984808 
vn 0.0871557 0 0.996195 
vn 0.258819 0 0.965926 
vn 0.173648 0 0.984808 
vn 0.34202 0 0.939693 
vn 0.258819 0 0.965926 
vn 0.422618 0 0.906308 
vn 0.34202 0 0.939693 
vn 0.5 0 0.866025 
vn 0.422618 0 0.906308 
vn 0.573576 0 0.819152 
vn 0.5 0 0.866025 
vn 0.642788 0 0.766044 
vn 0.573576 0 0.819152 
vn 0.707107 0 0.707107 
vn 0.642788 0 0.766044 
vn 0.766044 0 0.642788 
vn 0.707107 0 0.707107 
vn 0.819152 0 0.573576 
vn 0.766044 0 0.642788 
vn 0.866025 0 0.5 
vn 0.819152 0 0.573576 
vn 0.906308 0 0.422618 
vn 0.866025 0 0.5 
vn 0.939693 0 0.34202 
vn 0.906308 0 0.422618 
vn 0.965926 0 0.258819 
vn 0.939693 0 0.34202 
vn 0.984808 0 0.173648 
vn 0.965926 0 0.258819 
vn 0.996195 0 0.0871557 
vn 0.984808 0 0.173648 
vn 1 0 0 
vn 0.996195 0 0.0871557 
usemtl 0.615686_0.811765_0.929412_0.000000_0.000000
o mesh0
f 1//1 2//1 3//1 
f 3//1 4//1 1//1 
o mesh1
f 4//2 3//2 5//2 
f 5//2 6//2 4//2 
o mesh2
f 6//1 5//1 7//1 
f 7//1 8//1 6//1 
o mesh3
f 8//3 7//3 9//3 
f 9//3 10//3 8//3 
o mesh4
f 10//4 9//4 11//4 
f 11//4 12//4 10//4 
o mesh5
f 12//5 11//5 13//5 
f 13//5 14//5 12//5 
o mesh6
f 14//4 13//4 15//4 
f 15//4 16//4 14//4 
o mesh7
f 17//6 18//6 19//7 
f 20//7 19//7 21//8 
f 22//8 21//8 23//9 
f 24//9 23//9 25//10 
f 26//10 25//10 27//11 
f 28//11 27//11 29//12 
f 30//12 29//12 31//13 
f 32//13 31//13 33//14 
f 34//14 33//14 35//15 
f 36//15 35//15 37//16 
f 38//16 37//16 39//17 
f 40//17 39//17 41//18 
f 42//18 41//18 43//19 
f 44//19 43//19 45//20 
f 46//20 45//20 47//21 
f 48//21 47//21 49//22 
f 50//22 49//22 51//23 
f 52//23 51//23 53//24 
f 54//24 53//24 55//25 
f 56//25 55//25 57//26 
f 58//26 57//26 59//27 
f 60//27 59//27 61//28 
f 62//28 61//28 63//29 
f 64//29 63//29 65//30 
f 66//30 65//30 67//31 
f 68//31 67//31 69//32 
f 70//32 69//32 71//33 
f 72//33 71//33 73//34 
f 74//34 73//34 75//35 
f 76//35 75//35 77//36 
f 78//36 77//36 79//37 
f 80//37 79//37 81//38 
f 82//38 81//38 83//39 
f 84//39 83//39 85//40 
f 86//40 85//40 87//41 
f 88//41 87//41 89//42 
f 90//42 89//42 91//43 
f 92//43 91//43 93//44 
f 94//44 93//44 16//45 
f 16//45 15//45 94//44 
f 93//44 94//44 92//43 
f 91//43 92//43 90//42 
f 89//42 90//42 88//41 
f 87//41 88//41 86//40 
f 85//40 86//40 84//39 
f 83//39 84//39 82//38 
f 81//38 82//38 80//37 
f 79//37 80//37 78//36 
f 77//36 78//36 76//35 
f 75//35 76//35 74//34 
f 73//34 74//34 72//33 
f 71//33 72//33 70//32 
f 69//32 70//32 68//31 
f 67//31 68//31 66//30 
f 65//30 66//30 64//29 
f 63//29 64//29 62//28 
f 61//28 62//28 60//27 
f 59//27 60//27 58//26 
f 57//26 58//26 56//25 
f 55//25 56//25 54//24 
f 53//24 54//24 52//23 
f 51//23 52//23 50//22 
f 49//22 50//22 48//21 
f 47//21 48//21 46//20 
f 45//20 46//20 44//19 
f 43//19 44//19 42//18 
f 41//18 42//18 40//17 
f 39//17 40//17 38//16 
f 37//16 38//16 36//15 
f 35//15 36//15 34//14 
f 33//14 34//14 32//13 
f 31//13 32//13 30//12 
f 29//12 30//12 28//11 
f 27//11 28//11 26//10 
f 25//10 26//10 24//9 
f 23//9 24//9 22//8 
f 21//8 22//8 20//7 
f 19//7 20//7 17//6 
o mesh8
f 18//46 17//46 95//46 
f 95//46 96//46 18//46 
o mesh9
f 83//47 97//47 98//47 
f 4//47 14//47 16//47 
f 93//47 99//47 1//47 
f 91//47 100//47 99//47 
f 89//47 101//47 100//47 
f 87//47 102//47 101//47 
f 85//47 98//47 102//47 
f 98//47 85//47 83//47 
f 81//47 79//47 103//47 
f 1//47 16//47 93//47 
f 100//47 91//47 89//47 
f 102//47 87//47 85//47 
f 103//47 97//47 81//47 
f 79//47 77//47 104//47 
f 77//47 75//47 105//47 
f 99//47 93//47 91//47 
f 83//47 81//47 97//47 
f 105//47 104//47 77//47 
f 75//47 73//47 106//47 
f 57//47 107//47 108//47 
f 101//47 89//47 87//47 
f 106//47 105//47 75//47 
f 73//47 71//47 109//47 
f 71//47 69//47 110//47 
f 65//47 111//47 112//47 
f 63//47 113//47 111//47 
f 61//47 114//47 113//47 
f 59//47 108//47 114//47 
f 108//47 59//47 57//47 
f 55//47 53//47 115//47 
f 29//47 27//47 116//47 
f 27//47 25//47 117//47 
f 25//47 23//47 118//47 
f 23//47 21//47 119//47 
f 21//47 19//47 120//47 
f 19//47 18//47 121//47 
f 122//47 121//47 18//47 
f 104//47 103//47 79//47 
f 110//47 109//47 71//47 
f 67//47 112//47 110//47 
f 111//47 65//47 63//47 
f 114//47 61//47 59//47 
f 115//47 107//47 55//47 
f 53//47 51//47 123//47 
f 51//47 49//47 124//47 
f 33//47 125//47 126//47 
f 31//47 127//47 125//47 
f 127//47 31//47 29//47 
f 118//47 117//47 25//47 
f 120//47 119//47 21//47 
f 18//47 96//47 122//47 
f 109//47 106//47 73//47 
f 112//47 67//47 65//47 
f 57//47 55//47 107//47 
f 124//47 123//47 51//47 
f 45//47 43//47 128//47 
f 41//47 129//47 128//47 
f 39//47 130//47 129//47 
f 37//47 131//47 130//47 
f 35//47 126//47 131//47 
f 125//47 33//47 31//47 
f 117//47 116//47 27//47 
f 121//47 120//47 19//47 
f 110//47 69//47 67//47 
f 123//47 115//47 53//47 
f 49//47 47//47 132//47 
f 47//47 45//47 133//47 
f 128//47 43//47 41//47 
f 130//47 39//47 37//47 
f 126//47 35//47 33//47 
f 119//47 118//47 23//47 
f 113//47 63//47 61//47 
f 133//47 132//47 47//47 
f 129//47 41//47 39//47 
f 116//47 127//47 29//47 
f 132//47 124//47 49//47 
f 131//47 37//47 35//47 
f 128//47 133//47 45//47 
f 10//47 12//47 14//47 
f 8//47 10//47 4//47 
f 14//47 4//47 10//47 
f 16//47 1//47 4//47 
f 4//47 6//47 8//47 
o mesh10
f 84//48 86//48 134//48 
f 82//48 135//48 136//48 
f 135//48 82//48 84//48 
f 86//48 88//48 137//48 
f 88//48 90//48 138//48 
f 58//48 60//48 139//48 
f 134//48 135//48 84//48 
f 138//48 137//48 88//48 
f 90//48 92//48 140//48 
f 92//48 94//48 141//48 
f 95//48 17//48 142//48 
f 20//48 143//48 142//48 
f 22//48 144//48 143//48 
f 24//48 145//48 144//48 
f 26//48 146//48 145//48 
f 28//48 147//48 146//48 
f 30//48 148//48 147//48 
f 52//48 149//48 150//48 
f 54//48 151//48 149//48 
f 56//48 152//48 151//48 
f 152//48 56//48 58//48 
f 64//48 66//48 153//48 
f 66//48 68//48 154//48 
f 78//48 155//48 156//48 
f 80//48 136//48 155//48 
f 137//48 134//48 86//48 
f 141//48 140//48 92//48 
f 94//48 15//48 2//48 
f 3//48 2//48 15//48 
f 142//48 17//48 20//48 
f 144//48 22//48 24//48 
f 146//48 26//48 28//48 
f 147//48 28//48 30//48 
f 32//48 34//48 157//48 
f 34//48 36//48 158//48 
f 149//48 52//48 54//48 
f 139//48 152//48 58//48 
f 60//48 62//48 159//48 
f 62//48 64//48 160//48 
f 154//48 153//48 66//48 
f 68//48 70//48 161//48 
f 72//48 162//48 161//48 
f 74//48 163//48 162//48 
f 76//48 156//48 163//48 
f 155//48 78//48 80//48 
f 140//48 138//48 90//48 
f 15//48 13//48 3//48 
f 143//48 20//48 22//48 
f 30//48 32//48 148//48 
f 158//48 157//48 34//48 
f 36//48 38//48 164//48 
f 38//48 40//48 165//48 
f 40//48 42//48 166//48 
f 42//48 44//48 167//48 
f 46//48 168//48 167//48 
f 48//48 169//48 168//48 
f 50//48 150//48 169//48 
f 151//48 54//48 56//48 
f 160//48 159//48 62//48 
f 161//48 154//48 68//48 
f 162//48 72//48 74//48 
f 156//48 76//48 78//48 
f 2//48 141//48 94//48 
f 145//48 24//48 26//48 
f 164//48 158//48 36//48 
f 166//48 165//48 40//48 
f 167//48 44//48 46//48 
f 169//48 48//48 50//48 
f 159//48 139//48 60//48 
f 161//48 70//48 72//48 
f 136//48 80//48 82//48 
f 157//48 148//48 32//48 
f 167//48 166//48 42//48 
f 150//48 50//48 52//48 
f 163//48 74//48 76//48 
f 165//48 164//48 38//48 
f 153//48 160//48 64//48 
f 168//48 46//48 48//48 
f 7//48 5//48 3//48 
f 9//48 7//48 13//48 
f 3//48 13//48 7//48 
f 142//48 170//48 95//48 
f 13//48 11//48 9//48 
o mesh11
f 96//49 95//49 170//49 
f 170//49 122//49 96//49 
o mesh12
f 170//50 142//50 121//50 
f 121//50 122//50 170//50 
o mesh13
f 141//51 2//52 1//52 
f 140//53 141//51 99//54 
f 138//55 140//53 100//56 
f 137//57 138//55 101//58 
f 134//59 137//57 102//60 
f 135//61 134//59 98//62 
f 136//63 135//61 97//64 
f 155//65 136//63 103//66 
f 156//67 155//65 104//68 
f 163//69 156//67 105//70 
f 162//71 163//69 106//72 
f 161//73 162//71 109//74 
f 154//75 161//73 110//76 
f 153//77 154//75 112//78 
f 160//79 153//77 111//80 
f 159//81 160//79 113//82 
f 139//83 159//81 114//84 
f 152//85 139//83 108//86 
f 151//87 152//85 107//88 
f 149//89 151//87 115//90 
f 150//91 149//89 123//92 
f 169//93 150//91 124//94 
f 168//95 169//93 132//96 
f 167//97 168//95 133//98 
f 166//99 167//97 128//100 
f 165//101 166//99 129//102 
f 164//103 165//101 130//104 
f 158//105 164//103 131//106 
f 157//107 158//105 126//108 
f 148//109 157//107 125//110 
f 147//111 148//109 127//112 
f 146//113 147//111 116//114 
f 145//115 146//113 117//116 
f 144//117 145//115 118//118 
f 143//119 144//117 119//120 
f 142//121 143//119 120//122 
f 120//122 121//121 142//121 
f 119//120 120//122 143//119 
f 118//118 119//120 144//117 
f 117//116 118//118 145//115 
f 116//114 117//116 146//113 
f 127//112 116//114 147//111 
f 125//110 127//112 148//109 
f 126//108 125//110 157//107 
f 131//106 126//108 158//105 
f 130//104 131//106 164//103 
f 129//102 130//104 165//101 
f 128//100 129//102 166//99 
f 133//98 128//100 167//97 
f 132//96 133//98 168//95 
f 124//94 132//96 169//93 
f 123//92 124//94 150//91 
f 115//90 123//92 149//89 
f 107//88 115//90 151//87 
f 108//86 107//88 152//85 
f 114//84 108//86 139//83 
f 113//82 114//84 159//81 
f 111//80 113//82 160//79 
f 112//78 111//80 153//77 
f 110//76 112//78 154//75 
f 109//74 110//76 161//73 
f 106//72 109//74 162//71 
f 105//70 106//72 163//69 
f 104//68 105//70 156//67 
f 103//66 104//68 155//65 
f 97//64 103//66 136//63 
f 98//62 97//64 135//61 
f 102//60 98//62 134//59 
f 101//58 102//60 137//57 
f 100//56 101//58 138//55 
f 99//54 100//56 140//53 
f 1//52 99//54 141//51 
